<?xml version="1.0" encoding="UTF-8" standalone="no"?>
<!-- Created with Inkscape (http://www.inkscape.org/) -->

<svg
   xmlns:dc="http://purl.org/dc/elements/1.1/"
   xmlns:cc="http://creativecommons.org/ns#"
   xmlns:rdf="http://www.w3.org/1999/02/22-rdf-syntax-ns#"
   xmlns:svg="http://www.w3.org/2000/svg"
   xmlns="http://www.w3.org/2000/svg"
   xmlns:sodipodi="http://sodipodi.sourceforge.net/DTD/sodipodi-0.dtd"
   xmlns:inkscape="http://www.inkscape.org/namespaces/inkscape"
   width="512mm"
   height="512mm"
   viewBox="0 0 512 512"
   version="1.1"
   id="svg8"
   inkscape:version="0.92.2 (5c3e80d, 2017-08-06)"
   sodipodi:docname="letter aa.svg">
  <defs
     id="defs2" />
  <sodipodi:namedview
     id="base"
     pagecolor="#ffffff"
     bordercolor="#666666"
     borderopacity="1.0"
     inkscape:pageopacity="0.0"
     inkscape:pageshadow="2"
     inkscape:zoom="0.2418457"
     inkscape:cx="357.0615"
     inkscape:cy="959.78126"
     inkscape:document-units="mm"
     inkscape:current-layer="layer1"
     showgrid="false"
     inkscape:window-width="1366"
     inkscape:window-height="669"
     inkscape:window-x="0"
     inkscape:window-y="28"
     inkscape:window-maximized="1" />
  <metadata
     id="metadata5">
    <rdf:RDF>
      <cc:Work
         rdf:about="">
        <dc:format>image/svg+xml</dc:format>
        <dc:type
           rdf:resource="http://purl.org/dc/dcmitype/StillImage" />
        <dc:title />
      </cc:Work>
    </rdf:RDF>
  </metadata>
  <g
     inkscape:label="Layer 1"
     inkscape:groupmode="layer"
     id="layer1"
     transform="translate(0,215)">
    <circle
       style="opacity:1;fill:#d40000;fill-opacity:1;stroke:none;stroke-width:5.80909109;stroke-linecap:round;stroke-linejoin:round;stroke-miterlimit:4;stroke-dasharray:none;stroke-opacity:1"
       id="path815"
       cx="256"
       cy="41"
       r="233.02563" />
    <g
       aria-label="అ"
       transform="matrix(11.037566,0,0,11.037566,-1924.7169,-3491.9265)"
       style="font-style:normal;font-weight:normal;font-size:40px;line-height:25px;font-family:sans-serif;letter-spacing:0px;word-spacing:0px;fill:#ffffff;fill-opacity:1;stroke:none;stroke-width:1px;stroke-linecap:butt;stroke-linejoin:miter;stroke-opacity:1"
       id="flowRoot817">
      <path
         d="m 195.20898,313.51953 q 0,-0.85937 -0.54687,-1.32812 -0.54688,-0.50782 -1.28906,-0.50782 -0.85938,0 -1.40625,0.54688 -0.50782,0.54687 -0.50782,1.28906 0,0.82031 0.54688,1.32813 0.54687,0.46875 1.36719,0.46875 1.83593,0 1.83593,-1.79688 z m 8.39844,6.79688 h -8.39844 q -1.05468,-0.0781 -1.05468,0.54687 h -1.32813 v -2.57812 h 7.53906 q -1.44531,-1.67969 -1.44531,-3.98438 0,-1.91406 1.17188,-3.24219 1.17187,-1.32812 3.04687,-1.32812 2.77344,0 4.45313,2.34375 1.48437,2.07031 1.48437,4.96094 0,3.00781 -1.52344,5.74218 -1.52343,2.69532 -4.02343,4.33594 -0.23438,0.15625 -3.35938,1.48438 -2.10937,0.9375 -2.42187,1.91406 -0.39063,-0.97656 -2.92969,-1.875 -3.4375,-1.25 -3.90625,-1.48438 -4.84375,-2.89062 -4.84375,-8.94531 0,-3.4375 2.03125,-5.9375 2.1875,-2.61719 5.54687,-2.61719 1.79688,0 3.125,0.9375 1.48438,1.01563 1.48438,2.69532 0,2.03125 -1.36719,3.24218 -1.36719,1.21094 -3.71094,1.21094 -1.64062,0 -2.96875,-1.21094 -1.28906,-1.21093 -1.32812,-2.85156 -0.58594,0.625 -0.58594,2.03125 0,3.39844 2.89063,5.27344 2.42187,1.5625 6.01562,1.5625 3.16406,0 6.13281,-1.36719 3.67188,-1.67969 3.67188,-4.49219 0,-3.86718 -3.86719,-3.86718 -1.05469,0 -1.75781,0.78125 -0.66406,0.78125 -0.66406,1.83593 0,2.07032 2.30468,2.34375 0.39063,0.11719 0.58594,-0.0781 z"
         style="font-style:normal;font-variant:normal;font-weight:normal;font-stretch:normal;font-family:Ponnala;-inkscape-font-specification:Ponnala;fill:#ffffff"
         id="path817" />
    </g>
  </g>
</svg>
